<svg width="52" height="44" viewBox="0 0 52 44" fill="none" xmlns="http://www.w3.org/2000/svg">
<path id="Vector" d="M27.2768 43.4844C26.9286 43.8281 26.503 44 26 44C25.497 44 25.0714 43.8281 24.7232 43.4844L6.61607 26.2396C6.42262 26.0868 6.15662 25.8385 5.81808 25.4948C5.47954 25.151 4.94271 24.5256 4.20759 23.6185C3.47247 22.7114 2.81473 21.7804 2.23438 20.8255C1.65402 19.8707 1.13653 18.7153 0.68192 17.3594C0.227306 16.0035 0 14.6858 0 13.4062C0 9.20486 1.22842 5.92014 3.68527 3.55208C6.14211 1.18403 9.5372 0 13.8705 0C15.0699 0 16.2935 0.205296 17.5413 0.615887C18.7891 1.02648 19.9498 1.5803 21.0234 2.27734C22.0971 2.97439 23.0208 3.62847 23.7946 4.23958C24.5685 4.85069 25.3036 5.5 26 6.1875C26.6964 5.5 27.4315 4.85069 28.2054 4.23958C28.9792 3.62847 29.9029 2.97439 30.9766 2.27734C32.0502 1.5803 33.2109 1.02648 34.4587 0.615887C35.7065 0.205296 36.9301 0 38.1295 0C42.4628 0 45.8579 1.18403 48.3147 3.55208C50.7716 5.92014 52 9.20486 52 13.4062C52 17.6267 49.785 21.9236 45.3549 26.2969L27.2768 43.4844Z" fill="#999999"/>
</svg>
